<svg width="100" height="100" viewBox="0 0 100 100" fill="none" xmlns="http://www.w3.org/2000/svg">
<path opacity="0.35" d="M50 45.8333C59.2048 45.8333 66.6667 38.3714 66.6667 29.1667C66.6667 19.9619 59.2048 12.5 50 12.5C40.7953 12.5 33.3333 19.9619 33.3333 29.1667C33.3333 38.3714 40.7953 45.8333 50 45.8333Z" fill="#96939B"/>
<path opacity="0.35" d="M83.3333 50C90.2369 50 95.8333 44.4036 95.8333 37.5C95.8333 30.5964 90.2369 25 83.3333 25C76.4298 25 70.8333 30.5964 70.8333 37.5C70.8333 44.4036 76.4298 50 83.3333 50Z" fill="#96939B"/>
<path opacity="0.35" d="M16.6667 50C23.5702 50 29.1667 44.4036 29.1667 37.5C29.1667 30.5964 23.5702 25 16.6667 25C9.7631 25 4.16666 30.5964 4.16666 37.5C4.16666 44.4036 9.7631 50 16.6667 50Z" fill="#96939B"/>
<path opacity="0.35" d="M79.1667 58.3333C67.6625 58.3333 58.3333 67.6625 58.3333 79.1667C58.3333 90.6708 67.6625 100 79.1667 100C90.6708 100 100 90.6708 100 79.1667C100 67.6625 90.6708 58.3333 79.1667 58.3333Z" fill="#96939B"/>
<path d="M58.3333 79.1667C58.3333 69.0542 65.5417 60.6333 75.1 58.7417C72.4583 55.9417 68.7458 54.1667 64.5833 54.1667H35.4167C29.6083 54.1667 24.6375 57.5875 22.2917 62.5H14.5833C8.82916 62.5 4.16666 67.1625 4.16666 72.9167C4.16666 78.6708 8.82916 83.3333 14.5833 83.3333C14.5833 83.3333 38.6708 83.3333 58.7542 83.3333C58.4792 81.9875 58.3333 80.5958 58.3333 79.1667Z" fill="#96939B"/>
<path d="M68.2542 76.5875C66.8333 78.0125 66.8333 80.3208 68.2542 81.7458L74.5042 87.9958C75.1917 88.6833 76.1083 89.0625 77.0833 89.0625C78.0583 89.0625 78.975 88.6833 79.6625 87.9958L90.0792 77.5792C91.5 76.1542 91.5 73.8458 90.0792 72.4208C88.6583 71.0042 86.3458 71.0042 84.925 72.4208L77.0833 80.2625L73.4125 76.5875C71.9917 75.1708 69.675 75.1708 68.2542 76.5875Z" fill="#96939B"/>
</svg>
