<svg width="100" height="100" viewBox="0 0 100 100" fill="none" xmlns="http://www.w3.org/2000/svg">
<path opacity="0.35" d="M87.5 75V25C87.5 18.0958 81.9042 12.5 75 12.5H20.8333V75C20.8333 81.9042 26.4292 87.5 33.3333 87.5H75C81.9042 87.5 87.5 81.9042 87.5 75Z" fill="#96939B"/>
<path d="M8.33334 29.1667V25C8.33334 18.0958 13.9292 12.5 20.8333 12.5H75C68.0958 12.5 62.5 18.0958 62.5 25V29.1667C62.5 33.7708 58.7708 37.5 54.1667 37.5H16.6667C12.0625 37.5 8.33334 33.7708 8.33334 29.1667Z" fill="#96939B"/>
<path d="M70.8333 70.8333H58.3333C56.0333 70.8333 54.1667 72.7 54.1667 75V96.7333C54.1667 99.4667 57.3292 100.987 59.4625 99.2792L64.5833 95.1833L69.7042 99.2792C71.8375 100.987 75 99.4667 75 96.7333V75C75 72.7 73.1333 70.8333 70.8333 70.8333Z" fill="#96939B"/>
</svg>
