<svg width="100" height="100" viewBox="0 0 100 100" fill="none" xmlns="http://www.w3.org/2000/svg">
<path opacity="0.35" d="M75 54.1667C77.3012 54.1667 79.1666 52.3012 79.1666 50C79.1666 47.6988 77.3012 45.8333 75 45.8333C72.6988 45.8333 70.8333 47.6988 70.8333 50C70.8333 52.3012 72.6988 54.1667 75 54.1667Z" fill="#96939B"/>
<path opacity="0.35" d="M50 41.6667C59.2048 41.6667 66.6667 34.2048 66.6667 25C66.6667 15.7953 59.2048 8.33334 50 8.33334C40.7953 8.33334 33.3333 15.7953 33.3333 25C33.3333 34.2048 40.7953 41.6667 50 41.6667Z" fill="#96939B"/>
<path opacity="0.35" d="M85.4167 70.8333C88.8685 70.8333 91.6667 68.0351 91.6667 64.5833C91.6667 61.1316 88.8685 58.3333 85.4167 58.3333C81.9649 58.3333 79.1667 61.1316 79.1667 64.5833C79.1667 68.0351 81.9649 70.8333 85.4167 70.8333Z" fill="#96939B"/>
<path opacity="0.35" d="M14.5833 70.8333C18.0351 70.8333 20.8333 68.0351 20.8333 64.5833C20.8333 61.1316 18.0351 58.3333 14.5833 58.3333C11.1315 58.3333 8.33331 61.1316 8.33331 64.5833C8.33331 68.0351 11.1315 70.8333 14.5833 70.8333Z" fill="#96939B"/>
<path d="M85.4167 70.8333C81.9667 70.8333 79.1667 68.0333 79.1667 64.5833C79.1667 61.1333 81.9667 58.3333 85.4167 58.3333C86.15 58.3333 86.8458 58.4833 87.5 58.7167V50C87.5 43.0958 81.9042 37.5 75 37.5H25C18.0958 37.5 12.5 43.0958 12.5 50V58.7167C13.1542 58.4833 13.85 58.3333 14.5833 58.3333C18.0333 58.3333 20.8333 61.1333 20.8333 64.5833C20.8333 68.0333 18.0333 70.8333 14.5833 70.8333C13.85 70.8333 13.1542 70.6833 12.5 70.45V79.1667C12.5 86.0708 18.0958 91.6667 25 91.6667H75C81.9042 91.6667 87.5 86.0708 87.5 79.1667V70.45C86.8458 70.6833 86.15 70.8333 85.4167 70.8333ZM75 54.1667C72.7 54.1667 70.8333 52.3 70.8333 50C70.8333 47.7 72.7 45.8333 75 45.8333C77.3 45.8333 79.1667 47.7 79.1667 50C79.1667 52.3 77.3 54.1667 75 54.1667Z" fill="#96939B"/>
</svg>
