<svg width="101" height="100" viewBox="0 0 101 100" fill="none" xmlns="http://www.w3.org/2000/svg">
<path d="M100.464 49.8485C100.464 77.3791 77.9741 99.6971 50.2318 99.6971C22.4896 99.6971 0 77.3791 0 49.8485C0 22.318 22.4896 0 50.2318 0C77.9741 0 100.464 22.318 100.464 49.8485Z" fill="#2C2C33"/>
<path d="M45.4801 84.8929C45.4801 83.3784 45.9252 82.3056 46.8155 81.6746C47.7057 81.0183 48.5705 80.6902 49.4099 80.6902H53.912C56.2775 80.6902 58.1343 82.1289 59.4824 85.0065C60.8305 87.884 63.9337 89.3228 68.7919 89.3228H74.2478C77.3764 89.3228 79.6656 88.8811 81.1155 87.9976C82.5653 87.1142 83.2902 85.6123 83.2902 83.492C83.2902 81.3717 82.5653 79.8698 81.1155 78.9864C79.6656 78.1029 77.3764 77.6612 74.2478 77.6612H67.3802C66.3882 77.6612 65.5361 77.3204 64.8239 76.6389C64.1117 75.9321 63.7556 75.0865 63.7556 74.1021V70.9974C63.7556 70.0635 64.099 69.2431 64.7858 68.5363C65.4725 67.8043 66.2865 67.4383 67.2276 67.4383H72.8362C76.2191 67.4383 78.6737 66.9966 80.1998 66.1132C81.7514 65.2297 82.5272 63.7278 82.5272 61.6075C82.5272 59.4872 81.7514 57.998 80.1998 57.1398C78.6737 56.2563 76.2191 55.8146 72.8362 55.8146H70.0128C65.1292 55.8146 61.8988 57.3669 60.3218 60.4717C59.1772 62.8444 57.4603 64.0307 55.1711 64.0307H50.6308C49.4099 64.0307 48.4561 63.589 47.7693 62.7055C47.0825 61.8221 46.7392 60.8629 46.7392 59.828C46.7392 56.9505 47.8456 54.3632 50.0585 52.0662C52.2714 49.744 55.0312 48.0023 58.3378 46.8412C61.6445 45.6801 65.091 45.0995 68.6774 45.0995H73.9426C89.2549 45.0995 96.911 50.6274 96.911 61.6833C96.911 66.3025 95.1687 69.9246 91.684 72.5498C95.6774 75.0487 97.6741 78.6961 97.6741 83.492C97.6741 89.3228 95.7919 93.5381 92.0274 96.138C88.2883 98.7127 82.807 100 75.5832 100H67.4565C61.7589 100 56.6718 98.6117 52.1951 95.8351C47.7184 93.0333 45.4801 89.3859 45.4801 84.8929Z" fill="#E8E8E8"/>
</svg>
