<svg width="90" height="90" viewBox="0 0 90 90" fill="none" xmlns="http://www.w3.org/2000/svg">
<path d="M76.8751 41.25C75.4351 41.25 73.9951 40.7025 72.8963 39.6037L65.6251 32.3287L58.3538 39.6C56.1563 41.7975 52.5976 41.7975 50.4001 39.6C48.2026 37.4062 48.2026 33.84 50.4001 31.6462L57.6713 24.375L50.4001 17.1037C48.2026 14.91 48.2026 11.3437 50.4001 9.14996C52.5976 6.95246 56.1563 6.95246 58.3538 9.14996L65.6251 16.4212L72.8963 9.14996C75.0938 6.95246 78.6526 6.95246 80.8501 9.14996C83.0476 11.3437 83.0476 14.91 80.8501 17.1037L73.5788 24.375L80.8501 31.6462C83.0476 33.84 83.0476 37.4062 80.8501 39.6C79.7551 40.7025 78.3151 41.25 76.8751 41.25Z" fill="#FCBA56"/>
<path d="M63.7503 82.5C62.5128 82.5 61.2716 82.095 60.2366 81.2663L50.8616 73.7663C48.4353 71.8238 48.0416 68.2875 49.9841 65.8613C51.9266 63.4388 55.4666 63.045 57.8891 64.9838L63.1203 69.1688L76.4441 54.3638C78.5178 52.0575 82.0803 51.8625 84.3866 53.9475C86.6966 56.025 86.8841 59.58 84.8028 61.89L67.9278 80.64C66.8253 81.87 65.2916 82.5 63.7503 82.5Z" fill="#FCBA56"/>
<path opacity="0.35" d="M35.625 30H9.375C6.26625 30 3.75 27.4838 3.75 24.375C3.75 21.2663 6.26625 18.75 9.375 18.75H35.625C38.7337 18.75 41.25 21.2663 41.25 24.375C41.25 27.4838 38.7337 30 35.625 30Z" fill="#FCBA56"/>
<path opacity="0.35" d="M35.625 71.25H9.375C6.26625 71.25 3.75 68.7338 3.75 65.625C3.75 62.5163 6.26625 60 9.375 60H35.625C38.7337 60 41.25 62.5163 41.25 65.625C41.25 68.7338 38.7337 71.25 35.625 71.25Z" fill="#FCBA56"/>
</svg>
