<svg width="100" height="100" viewBox="0 0 100 100" fill="none" xmlns="http://www.w3.org/2000/svg">
<path d="M100 50C100 77.6142 77.6142 100 50 100C22.3858 100 0 77.6142 0 50C0 22.3858 22.3858 0 50 0C77.6142 0 100 22.3858 100 50Z" fill="#2C2C33"/>
<path d="M45.65 96.4301V90.8854C45.65 87.67 46.3082 84.885 47.6248 82.5304C48.9667 80.1758 50.6756 78.3275 52.7517 76.9857C54.8278 75.6438 57.1318 74.4918 59.6636 73.5297C62.1955 72.5676 64.7273 71.7954 67.2591 71.2131C69.8163 70.6055 72.1329 69.9978 74.209 69.3902C78.9182 67.9724 81.2728 65.9596 81.2728 63.3518C81.2728 60.5161 80.5386 58.5793 79.0701 57.5412C77.6016 56.5032 75.1204 55.9842 71.6265 55.9842H68.9301C64.0437 55.9842 60.8283 57.5412 59.2839 60.6554C58.1445 63.0353 56.4355 64.2253 54.1569 64.2253H49.6376C48.397 64.2253 47.4349 63.7822 46.7513 62.8961C46.0677 62.0099 45.7259 61.0478 45.7259 60.0098C45.7259 57.1235 46.8273 54.5284 49.03 52.2244C51.258 49.8951 54.0177 48.1482 57.309 46.9835C60.6004 45.8189 64.031 45.2365 67.6009 45.2365H72.7279C83.8426 45.2365 90.8811 48.3254 93.8433 54.503C95.008 56.9336 95.5903 59.7566 95.5903 62.972C95.5903 66.1874 94.932 68.9218 93.6155 71.1751C92.2989 73.4285 90.6026 75.2261 88.5265 76.5679C86.4504 77.8845 84.1338 79.0238 81.5766 79.9859C79.0448 80.948 76.513 81.7455 73.9811 82.3785C71.4493 82.9861 69.1453 83.5684 67.0692 84.1254C62.3347 85.442 59.9675 87.151 59.9675 89.2524H91.4887C92.5268 89.2524 93.3876 89.6068 94.0712 90.3158C94.7801 91.0247 95.1346 91.8728 95.1346 92.8602V96.4301C95.1346 97.4175 94.7674 98.2657 94.0332 98.9746C93.3243 99.6582 92.4761 100 91.4887 100H49.3338C48.3464 100 47.4855 99.6582 46.7513 98.9746C46.0171 98.2657 45.65 97.4175 45.65 96.4301Z" fill="#E8E8E8"/>
</svg>
