<svg width="70" height="70" viewBox="0 0 70 70" fill="none" xmlns="http://www.w3.org/2000/svg">
<path opacity="0.35" d="M14.5834 20.4165V58.3332C14.5834 61.5561 17.1938 64.1665 20.4167 64.1665H49.5834C54.4163 64.1665 58.3334 60.2494 58.3334 55.4165V20.4165C58.3334 15.5836 54.4163 11.6665 49.5834 11.6665H23.3334C18.5005 11.6665 14.5834 15.5836 14.5834 20.4165Z" fill="#FCBA56"/>
<path d="M40.8333 55.4165C40.8333 53.8065 41.2679 52.2957 42.0291 51.0007C43.152 49.0786 41.58 46.6665 39.3545 46.6665H20.4166C15.5837 46.6665 11.6666 50.5836 11.6666 55.4165C11.6666 60.2494 15.5837 64.1665 20.4166 64.1665H49.5833C44.7504 64.1665 40.8333 60.2494 40.8333 55.4165Z" fill="#FCBA56"/>
<path d="M27.7084 17.5002C25.2934 17.5002 23.3334 15.5402 23.3334 13.1252V10.2085C23.3334 7.7935 25.2934 5.8335 27.7084 5.8335C30.1234 5.8335 32.0834 7.7935 32.0834 10.2085V13.1252C32.0834 15.5402 30.1234 17.5002 27.7084 17.5002Z" fill="#FCBA56"/>
<path d="M45.2084 17.5002C42.7934 17.5002 40.8334 15.5402 40.8334 13.1252V10.2085C40.8334 7.7935 42.7934 5.8335 45.2084 5.8335C47.6234 5.8335 49.5834 7.7935 49.5834 10.2085V13.1252C49.5834 15.5402 47.6234 17.5002 45.2084 17.5002Z" fill="#FCBA56"/>
<path d="M46.6667 29.1668H26.25C24.64 29.1668 23.3334 27.8602 23.3334 26.2502C23.3334 24.6402 24.64 23.3335 26.25 23.3335H46.6667C48.2767 23.3335 49.5834 24.6402 49.5834 26.2502C49.5834 27.8602 48.2767 29.1668 46.6667 29.1668Z" fill="#FCBA56"/>
<path d="M46.6667 40.8333H26.25C24.64 40.8333 23.3334 39.5267 23.3334 37.9167C23.3334 36.3067 24.64 35 26.25 35H46.6667C48.2767 35 49.5834 36.3067 49.5834 37.9167C49.5834 39.5267 48.2767 40.8333 46.6667 40.8333Z" fill="#FCBA56"/>
</svg>
