<svg width="90" height="90" viewBox="0 0 90 90" fill="none" xmlns="http://www.w3.org/2000/svg">
<path opacity="0.35" d="M45 41.25C53.2843 41.25 60 34.5343 60 26.25C60 17.9657 53.2843 11.25 45 11.25C36.7157 11.25 30 17.9657 30 26.25C30 34.5343 36.7157 41.25 45 41.25Z" fill="#FCBA56"/>
<path opacity="0.35" d="M75 45C81.2132 45 86.25 39.9632 86.25 33.75C86.25 27.5368 81.2132 22.5 75 22.5C68.7868 22.5 63.75 27.5368 63.75 33.75C63.75 39.9632 68.7868 45 75 45Z" fill="#FCBA56"/>
<path opacity="0.35" d="M15 45C21.2132 45 26.25 39.9632 26.25 33.75C26.25 27.5368 21.2132 22.5 15 22.5C8.7868 22.5 3.75 27.5368 3.75 33.75C3.75 39.9632 8.7868 45 15 45Z" fill="#FCBA56"/>
<path opacity="0.35" d="M71.25 52.5C60.8963 52.5 52.5 60.8963 52.5 71.25C52.5 81.6038 60.8963 90 71.25 90C81.6038 90 90 81.6038 90 71.25C90 60.8963 81.6038 52.5 71.25 52.5Z" fill="#FCBA56"/>
<path d="M52.5 71.25C52.5 62.1488 58.9875 54.57 67.59 52.8675C65.2125 50.3475 61.8713 48.75 58.125 48.75H31.875C26.6475 48.75 22.1737 51.8287 20.0625 56.25H13.125C7.94625 56.25 3.75 60.4462 3.75 65.625C3.75 70.8038 7.94625 75 13.125 75C13.125 75 34.8037 75 52.8787 75C52.6312 73.7887 52.5 72.5362 52.5 71.25Z" fill="#FCBA56"/>
<path d="M61.4288 68.9288C60.15 70.2113 60.15 72.2888 61.4288 73.5713L67.0538 79.1963C67.6725 79.815 68.4975 80.1563 69.375 80.1563C70.2525 80.1563 71.0775 79.815 71.6963 79.1963L81.0713 69.8213C82.35 68.5388 82.35 66.4613 81.0713 65.1788C79.7925 63.9038 77.7113 63.9038 76.4325 65.1788L69.375 72.2363L66.0713 68.9288C64.7925 67.6538 62.7075 67.6538 61.4288 68.9288Z" fill="#FCBA56"/>
</svg>
