<svg width="100" height="100" viewBox="0 0 100 100" fill="none" xmlns="http://www.w3.org/2000/svg">
<path d="M100 50C100 77.6142 77.6142 100 50 100C22.3858 100 0 77.6142 0 50C0 22.3858 22.3858 0 50 0C77.6142 0 100 22.3858 100 50Z" fill="#2C2C33"/>
<path d="M48.6836 47.0215C48.293 46.4681 48.0977 45.8171 48.0977 45.0684C48.0977 44.3197 48.6348 43.4896 49.709 42.5781L61.623 32.3242C63.3483 30.7943 65.7409 30.013 68.8008 29.9805H75.9785C77.3131 29.9805 78.4362 30.4362 79.3477 31.3477C80.2591 32.2591 80.7148 33.3496 80.7148 34.6191V95.4102C80.7148 96.6797 80.2428 97.7702 79.2988 98.6816C78.3548 99.5605 77.248 100 75.9785 100H66.8965C65.627 100 64.5365 99.5768 63.625 98.7305C62.7461 97.8516 62.3066 96.7773 62.3066 95.5078V48.291L56.6914 52.3926C56.0404 52.8483 55.2917 52.9948 54.4453 52.832C53.599 52.6693 52.9154 52.2949 52.3945 51.709L48.6836 47.0215Z" fill="#E8E8E8"/>
</svg>
