<svg width="90" height="90" viewBox="0 0 90 90" fill="none" xmlns="http://www.w3.org/2000/svg">
<path d="M70.4588 40.77L71.2951 37.5H56.2051L57.0413 40.77C57.6788 43.26 59.9213 45 62.4901 45H65.0101C67.5788 45 69.8213 43.26 70.4588 40.77Z" fill="#FCBA56"/>
<path opacity="0.35" d="M7.5 70.9875V49.2337C7.5 46.6762 9.25875 44.4525 11.7487 43.86L20.3925 41.8162C24.81 40.77 29.4488 41.1787 33.6188 42.975L50.04 50.055C55.2487 52.3012 57.5962 58.3912 55.2375 63.5512L56.6362 65.385L74.085 59.1562C77.3963 57.9262 81.0675 59.685 82.185 63.0337C83.1675 65.9812 81.8325 69.2025 79.0537 70.5937L61.7175 79.3237C58.2638 81.0487 54.2663 81.3337 50.6025 80.115L27.5775 72.4387C24.2962 71.3437 20.7525 71.3362 17.4637 72.4087L11.9437 74.2125C9.75375 74.9287 7.5 73.2937 7.5 70.9875Z" fill="#FCBA56"/>
<path opacity="0.35" d="M78.75 22.5C78.75 14.2162 72.0337 7.5 63.75 7.5C55.4662 7.5 48.75 14.2162 48.75 22.5C48.75 27.765 51.4763 32.3775 55.5788 35.055L56.205 37.5H71.295L71.9213 35.055C76.0238 32.3775 78.75 27.765 78.75 22.5Z" fill="#FCBA56"/>
</svg>
