<svg width="137" height="87" viewBox="0 0 137 87" fill="none" xmlns="http://www.w3.org/2000/svg">
<path d="M79.8409 41.5524C77.4208 39.237 76.2108 35.6592 76.2108 30.8191C76.2108 25.9659 77.4208 22.3816 79.8409 20.0662C82.274 17.7377 85.9172 16.5735 90.7704 16.5735H95.1461C98.1156 16.5735 100.738 17.3453 103.015 18.8889C105.304 20.4325 106.448 22.5451 106.448 25.2268C106.448 25.9986 106.22 26.5546 105.762 26.8947C105.304 27.2217 104.859 27.3852 104.427 27.3852H102.092C100.889 27.3852 99.9535 26.6658 99.2864 25.2268C98.3183 23.16 96.7093 22.1265 94.4593 22.1265H90.9666C88.1018 22.1265 86.1592 22.7414 85.1389 23.971C84.1185 25.2007 83.6083 27.4768 83.6083 30.7995C83.6083 34.1222 84.1185 36.4049 85.1389 37.6476C86.1592 38.8772 88.1018 39.4921 90.9666 39.4921H94.8714C97.1214 39.4921 98.7239 38.4586 99.6788 36.3918C100.346 34.9397 101.288 34.2137 102.504 34.2137H104.839C105.454 34.2137 105.938 34.4427 106.291 34.9005C106.658 35.3584 106.841 35.8554 106.841 36.3918C106.841 39.0735 105.703 41.1861 103.427 42.7297C101.15 44.2602 98.5277 45.0255 95.5582 45.0255H90.7704C85.9172 45.0255 82.274 43.8678 79.8409 41.5524Z" fill="#2C2C33"/>
<path d="M110.667 42.9848V18.5553C110.667 18.0451 110.85 17.6135 111.217 17.2603C111.583 16.9071 112.021 16.7305 112.531 16.7305H135.156C135.666 16.7305 136.097 16.9136 136.451 17.2799C136.817 17.6462 137 18.0844 137 18.5946V20.439C137 20.9492 136.817 21.3874 136.451 21.7537C136.097 22.1069 135.666 22.2835 135.156 22.2835H118.065V27.9935H132.781C133.291 27.9935 133.723 28.1767 134.076 28.543C134.443 28.8961 134.626 29.3278 134.626 29.838V31.6825C134.626 32.1927 134.443 32.6309 134.076 32.9972C133.723 33.3504 133.291 33.527 132.781 33.527H118.065V39.3155H135.116C135.613 39.3155 136.039 39.4921 136.392 39.8453C136.745 40.1985 136.922 40.6301 136.922 41.1403V43.024C136.922 43.5342 136.738 43.9724 136.372 44.3387C136.006 44.6919 135.568 44.8685 135.057 44.8685H112.531C112.021 44.8685 111.583 44.6919 111.217 44.3387C110.85 43.9724 110.667 43.5211 110.667 42.9848Z" fill="#2C2C33"/>
<path d="M78.9556 63.4617V52.4685C78.9556 52.2389 79.0351 52.0417 79.194 51.8769C79.353 51.712 79.5472 51.6296 79.7768 51.6296H86.514C90.0754 51.6296 91.8561 53.272 91.8561 56.5567C91.8561 59.8356 90.0754 61.475 86.514 61.475H82.2845V63.4617C82.2845 63.6913 82.2021 63.8885 82.0373 64.0533C81.8783 64.2123 81.6841 64.2918 81.4545 64.2918H79.7945C79.5649 64.2918 79.3677 64.2123 79.2029 64.0533C79.038 63.8885 78.9556 63.6913 78.9556 63.4617ZM82.2845 58.9761H85.5074C86.4964 58.9761 87.2469 58.8113 87.7591 58.4817C88.2712 58.1461 88.5273 57.5045 88.5273 56.5567C88.5273 55.6031 88.2712 54.9615 87.7591 54.6318C87.2469 54.2963 86.4964 54.1285 85.5074 54.1285H82.2845V58.9761Z" fill="#2C2C33"/>
<path d="M105.172 62.9849C103.971 64.0386 102.205 64.5655 99.8737 64.5655C97.5485 64.5655 95.7825 64.0386 94.5758 62.9849C93.369 61.9253 92.7656 60.2506 92.7656 57.9607C92.7656 55.6708 93.369 53.999 94.5758 52.9453C95.7825 51.8916 97.5485 51.3647 99.8737 51.3647C102.205 51.3647 103.971 51.8916 105.172 52.9453C106.378 53.999 106.982 55.6708 106.982 57.9607C106.982 60.2506 106.378 61.9253 105.172 62.9849ZM102.761 54.8084C102.167 54.102 101.204 53.7488 99.8737 53.7488C98.5492 53.7488 97.5868 54.102 96.9863 54.8084C96.3918 55.5148 96.0945 56.5685 96.0945 57.9695C96.0945 59.3647 96.3918 60.4154 96.9863 61.1218C97.5868 61.8223 98.5492 62.1726 99.8737 62.1726C101.204 62.1726 102.167 61.8223 102.761 61.1218C103.356 60.4154 103.653 59.3647 103.653 57.9695C103.653 56.5685 103.356 55.5148 102.761 54.8084Z" fill="#2C2C33"/>
<path d="M108.801 63.4617V52.4685C108.801 52.2389 108.88 52.0417 109.039 51.8769C109.198 51.712 109.392 51.6296 109.622 51.6296H112.218C112.424 51.6296 112.642 51.712 112.871 51.8769C113.101 52.0417 113.289 52.2389 113.437 52.4685L118.77 60.6715V52.4508C118.77 52.2212 118.849 52.027 119.008 51.868C119.173 51.7091 119.37 51.6296 119.6 51.6296H121.119C121.348 51.6296 121.542 51.7091 121.701 51.868C121.866 52.027 121.949 52.2271 121.949 52.4685V63.4617C121.949 63.6913 121.866 63.8885 121.701 64.0533C121.542 64.2123 121.348 64.2918 121.119 64.2918H118.187C117.957 64.2918 117.722 64.2123 117.481 64.0533C117.239 63.8885 117.048 63.6913 116.907 63.4617L112.024 55.8857V63.4617C112.024 63.6913 111.941 63.8885 111.776 64.0533C111.618 64.2123 111.423 64.2918 111.194 64.2918H109.64C109.41 64.2918 109.213 64.2123 109.048 64.0533C108.883 63.8885 108.801 63.6913 108.801 63.4617Z" fill="#2C2C33"/>
<path d="M123.397 52.0535C123.397 51.7709 123.55 51.6296 123.856 51.6296H125.534C126.199 51.6296 126.711 51.9092 127.07 52.4685L129.931 56.8746L132.783 52.4685C133.148 51.9092 133.66 51.6296 134.319 51.6296H136.006C136.306 51.6296 136.456 51.7709 136.456 52.0535C136.456 52.183 136.409 52.3213 136.315 52.4685L131.591 59.7708V63.4794C131.591 63.709 131.508 63.9032 131.344 64.0622C131.185 64.2152 130.99 64.2918 130.761 64.2918H129.101C128.871 64.2918 128.674 64.2152 128.509 64.0622C128.344 63.9032 128.262 63.709 128.262 63.4794V59.7708L123.547 52.4685C123.447 52.3213 123.397 52.183 123.397 52.0535Z" fill="#2C2C33"/>
<path d="M62.4224 29.3043C64.3237 31.0435 65.6757 33.0238 65.9619 35.4494C66.1125 31.2035 65.4915 27.0619 63.3759 23.1245C60.8143 19.2102 57.1474 16.8843 52.1191 16.5156C48.4649 15.7318 45.0424 34.8592 45.0876 37.4146C45.0285 41.4367 43.3219 44.5417 40.2702 46.8989C41.4682 47.3383 42.6245 47.4786 43.5872 47.1389C44.55 46.7992 45.8801 45.4171 45.8801 45.4171C45.8801 45.4171 43.0427 50.2938 42.5063 53.7756C41.9699 57.2574 42.2247 60.0459 42.6152 62.7497C43.3671 59.8418 44.2129 57.4638 45.3356 56.6371C44.8559 60.9363 45.463 64.8668 47.1569 68.4286C48.663 71.1452 50.5168 73.2867 52.893 74.6039C55.435 75.834 57.9561 76.6259 60.4436 76.7025C59.0822 75.7274 58.2191 74.3291 57.5842 72.7348C59.2062 74.154 61.7273 75.2416 63.2415 75.579C64.7558 75.9164 65.6746 75.8514 66.6466 76.0021C63.2404 74.3383 59.8295 68.882 59.2097 66.0379C58.5898 63.1937 58.7462 59.7432 58.7462 59.7432C60.2408 62.9595 62.5823 64.9155 65.5888 65.8813C63.34 61.1392 61.8339 56.2649 62.5499 50.9975L63.8243 40.5138C64.4175 36.6262 63.9726 32.8858 62.4224 29.3043Z" fill="#2C2C33"/>
<path d="M61.6162 29.492C63.5175 31.2312 64.8684 33.2115 65.1557 35.6371C65.3052 31.3912 64.6842 27.2497 62.5686 23.3122C60.0081 19.3979 56.3412 17.0709 51.3129 16.7034C47.6575 15.9196 44.2362 35.0469 44.2802 37.6024C44.2212 41.6233 42.5157 44.7295 39.4628 47.0855C40.662 47.5261 41.8182 47.6652 42.781 47.3255C43.7438 46.9858 45.0774 45.6072 45.0774 45.6072C45.0774 45.6072 42.2411 50.4815 41.7093 53.9633C41.1775 57.4451 41.4278 60.2324 41.8171 62.9374C42.569 60.0295 43.4159 57.6515 44.5375 56.8237C44.0578 61.1229 44.6653 65.0538 46.3599 68.6164C47.8661 71.333 49.7198 73.4745 52.0961 74.7904C54.638 76.0206 57.158 76.8137 59.6455 76.8902C58.2853 75.9151 57.4221 74.5156 56.7861 72.9226C58.4139 74.3417 60.9292 75.4293 62.4434 75.7667C63.9577 76.1041 64.8765 76.038 65.8497 76.1887C62.4423 74.5249 59.0314 69.0697 58.4116 66.2256C57.7917 63.3815 57.9481 59.931 57.9481 59.931C59.4427 63.1473 61.783 65.1033 64.7907 66.0691C62.5408 61.327 61.0358 56.4526 61.7518 51.1853L63.0262 40.7016C63.6067 36.8139 63.1652 33.0724 61.6162 29.492Z" fill="#FFBD39"/>
<path d="M58.4856 20.9191C60.9186 21.7655 62.945 23.0432 64.1696 25.158C62.6252 21.1997 60.4135 17.6448 56.9111 14.8691C53.0089 12.2928 48.721 11.6122 43.958 13.2668C40.2923 13.9972 35.6371 19.551 35.1423 21.8374C41.4914 12.9537 64.216 30.6492 64.216 30.6492C63.2126 26.852 61.3264 23.5928 58.4856 20.9191Z" fill="#FFBD39"/>
<path d="M32.2621 51.3788C29.9901 56.3645 28.5986 61.0996 27.1747 65.3084C27.1747 65.3084 23.2923 74.5214 22.7373 77.1846C22.26 79.4792 21.5787 83.6045 22.1789 86.7454C25.0361 81.9856 29.2623 78.1996 34.3047 75.8827C39.3471 73.5658 44.9708 72.8258 50.4403 73.7596C49.62 71.2923 47.3956 63.5414 49.7452 58.1465C52.5733 51.6536 54.127 49.3776 56.1232 46.6031C58.1195 43.8285 59.7276 39.1107 58.9791 34.8648C58.2307 30.619 57.2876 29.3436 54.792 26.0693C52.2964 22.795 48.2309 18.1851 43.3127 14.6917L21.018 17.4685L15.2505 29.79C14.3526 32.4323 12.6448 35.7275 11.2024 37.6151C9.75995 39.5026 7.67218 41.2499 6.41511 41.4412C5.15804 41.6325 2.73659 41.6812 0.998704 40.9972C0.336607 45.2209 0.00270527 49.4896 0 53.765L2.5489 54.7088V56.4665C4.30019 57.0289 6.12407 57.3328 7.96298 57.3685L13.5242 57.0381C15.7186 55.6073 16.7787 53.8137 17.4066 51.3777C22.2658 50.6055 27.2419 50.9069 32.2621 51.3788Z" fill="#BFBFBF"/>
<path d="M16.6557 8.37378C16.8202 11.4602 18.1862 13.8301 21.0305 15.3189L25.4992 15.6168C22.3606 13.3501 19.3807 10.9663 16.6557 8.37378Z" fill="#2C2C33"/>
<path d="M15.5251 40.1682C13.8416 35.3901 14.5322 29.47 16.3592 27.3818C18.1863 25.2937 24.4462 23.2959 24.4462 23.2959C27.1608 21.9649 31.0223 21.1313 34.8839 20.2976L39.2101 20.0112L26.8248 25.5163C26.8248 25.5163 22.7211 27.5233 19.8732 30.0462C17.0254 32.5692 16.1241 37.1606 15.5251 40.1682Z" fill="#2C2C33"/>
<path d="M1.12509 10.5999C3.14798 13.2886 5.32961 16.4887 7.89009 17.2991C10.4506 18.1096 16.1381 18.7137 20.4955 15.0533C24.853 11.3929 43.3568 9.50881 50.4659 13.7246C57.575 17.9403 57.8809 24.7694 55.6865 22.6303C52.7576 19.7769 47.1292 20.1433 38.4131 20.7276C28.8339 21.3688 20.2233 27.5254 17.5782 28.9017C14.9332 30.278 10.1551 31.1905 6.99682 30.8426C3.8385 30.4948 0.695251 29.0211 0.695251 29.0211C0.695251 29.0211 7.89588 28.7429 11.3253 27.1486C14.7547 25.5544 18.9349 21.9845 21.3274 19.0255C21.3274 19.0255 13.3864 21.5659 9.8678 20.7265C6.34917 19.887 4.51859 17.6516 3.70758 16.5443C2.89657 15.4371 1.77737 13.0057 1.12509 10.5999Z" fill="#2C2C33"/>
<path d="M11.2129 25.2774C10.0891 25.8142 9.02432 26.0565 8.07544 25.7261C9.56654 26.6015 11.2199 27.1047 13.1906 26.8855C15.2691 26.4588 17.0638 25.2264 18.5097 22.9991C18.5433 22.9585 9.56539 25.3087 11.2129 25.2774Z" fill="#2C2C33"/>
<path d="M1.09036 10.0747C3.11326 12.7635 5.29604 15.9647 7.85537 16.7752C10.4147 17.5856 16.1045 18.1885 20.4608 14.5293C24.8171 10.8701 31.1882 9.90314 32.5565 9.64342C33.9248 9.38371 46.8303 8.98022 53.9394 13.1994C61.0485 17.4187 59.4358 32.161 58.9515 30.6108C58.4672 29.0607 57.8485 27.267 55.653 25.1278C52.724 22.2744 47.0956 19.6228 38.3784 20.2071C28.7992 20.8495 20.1885 27.005 17.5435 28.3824C14.8984 29.7598 10.1204 30.6665 6.96209 30.3198C3.80378 29.9732 0.665161 28.4972 0.665161 28.4972C0.665161 28.4972 7.86695 28.2189 11.2952 26.6247C14.7235 25.0304 18.906 21.4605 21.2985 18.5004C21.2985 18.5004 13.3563 21.0408 9.83887 20.2025C6.32139 19.3642 4.48387 17.1276 3.67633 16.0204C2.8688 14.9131 1.74381 12.4817 1.09036 10.0747Z" fill="#FFBD39"/>
<path d="M5.76751 49.6026C6.93143 49.6026 7.87498 48.6583 7.87498 47.4936C7.87498 46.3288 6.93143 45.3845 5.76751 45.3845C4.60358 45.3845 3.66003 46.3288 3.66003 47.4936C3.66003 48.6583 4.60358 49.6026 5.76751 49.6026Z" fill="#2C2C33"/>
<path d="M28.9936 11.1218L19.4098 6.63355C18.6787 5.9773 19.2487 5.59004 20.2266 5.28975L40.2331 0.11746C41.1472 -0.137618 42.2178 -0.0100794 43.5745 0.82704L62.9669 12.2789C64.436 13.3351 64.7651 14.0923 63.3273 14.3786L49.5505 16.7451L28.9936 11.1218Z" fill="#2C2C33"/>
<path d="M29.9785 12.7554L29.7954 9.22486C29.9541 8.67876 30.6215 8.57093 31.3954 8.54658C31.3954 8.54658 35.827 8.02251 38.172 8.23933C40.517 8.45614 44.0333 10.0376 44.0333 10.0376L39.9782 16.4598C37.4224 14.1745 34.1169 12.9038 29.9785 12.7554Z" fill="#242227"/>
<path d="M1.54725 43.1402C1.71948 41.9261 1.58845 40.9035 1.25459 40.856C0.920721 40.8086 0.510448 41.7544 0.338218 42.9685C0.165987 44.1825 0.29702 45.2052 0.630884 45.2526C0.964749 45.3001 1.37502 44.3543 1.54725 43.1402Z" fill="#2C2C33"/>
<path d="M51.4414 27.8154C53.1677 25.3864 54.2012 20.352 53.849 17.8836C53.4967 15.4151 49.1741 8.54656 45.331 5.48446C44.6359 4.85373 42.1936 7.10769 41.8077 8.18713C40.619 12.2753 41.1022 18.5305 41.3374 20.0575C41.5725 21.5845 43.3313 23.1138 43.3313 23.8188C43.3313 24.5237 43.0996 26.7568 43.0996 26.7568L51.4414 27.8154Z" fill="#BFBFBF"/>
<path d="M48.6364 23.2958C49.3118 22.2163 50.4102 18.4678 49.6895 16.8029C48.9689 15.1379 46.9796 11.8277 45.8082 9.53198C45.8082 9.53198 45.3367 14.3889 46.8336 16.6637C48.3305 18.9386 48.6364 23.2958 48.6364 23.2958Z" fill="#2C2C33"/>
<path d="M51.6856 26.9585C52.9844 25.37 53.7653 22.3207 53.8765 21.1612C53.9877 20.0018 54.0712 17.582 53.6274 16.1397C53.1837 14.6973 46.64 5.70466 45.4744 5.31741C44.3089 4.93015 42.6463 6.26236 41.4773 8.3111C40.3083 10.3598 39.5367 20.9096 40.087 22.2975C40.6373 23.6854 43.5257 25.9602 43.5257 25.9602C43.5257 25.9602 41.8701 21.6308 41.5932 20.0215C41.3163 18.4122 41.0382 10.5314 41.9813 8.58937C42.9244 6.64729 44.3101 5.25944 45.3644 5.64785C46.4187 6.03627 52.7956 15.1936 53.1559 16.6626C53.5162 18.1316 53.405 20.025 53.2949 21.4639C53.1848 22.9027 52.5592 25.0813 51.6856 26.9585Z" fill="#2C2C33"/>
<path d="M12.3969 26.0611C15.9086 24.061 19.1747 21.4395 22.2693 18.3867C18.746 19.3317 15.2181 19.9705 11.6832 20.1259C12.8047 20.2152 14.0004 20.6813 14.2495 21.2761C14.4986 21.8709 13.6783 24.628 12.3969 26.0611Z" fill="#242227"/>
<path d="M9.40545 21.6832C7.39182 21.711 5.64235 21.3249 4.40382 20.1341C6.1417 22.5574 8.34302 24.5192 11.4446 25.5905C14.8334 26.416 12.8105 25.7899 16.3048 23.3748C19.0658 21.9023 3.63104 16.2268 3.63104 16.2268C4.87773 18.6514 6.91518 20.5766 9.40545 21.6832Z" fill="#2C2C33"/>
<path d="M12.7711 26.0297C11.8338 26.8518 10.8745 27.3724 9.87466 27.3051C11.5465 27.7446 13.2751 27.7817 15.1126 27.0385C16.9988 26.0657 18.3938 24.3926 19.1828 21.8569C19.9625 20.0586 19.4944 16.4748 18.9105 15.6179C19.9613 20.8725 8.13562 25.7816 8.13562 25.7816C9.60049 26.4204 11.2465 26.5085 12.7711 26.0297Z" fill="#FFBD39"/>
<path d="M9.21664 20.9689C7.2818 21.0431 5.59025 20.7115 4.37258 19.5961C6.09656 21.8849 8.25733 23.7203 11.265 24.678C14.5427 25.3945 17.8319 24.7127 21.1339 22.3115C23.7511 20.8321 26.4159 15.7978 26.4472 14.105C23.0143 21.8652 3.54071 15.8569 3.54071 15.8569C4.79417 18.1593 6.79707 19.9632 9.21664 20.9689Z" fill="#FFBD39"/>
<path d="M25.8134 38.0128C26.7311 39.1723 29.8581 38.7931 31.7674 38.2354C33.6768 37.6777 34.7914 36.4151 35.7205 33.724C36.6497 31.0329 35.7692 27.7656 35.7692 27.7656L33.1589 33.1489C33.1589 33.1489 23.5194 33.3936 25.8134 38.0128Z" fill="white"/>
<path d="M26.0091 38.0033C25.1773 37.5036 24.9861 33.0838 26.0091 30.0089C27.0322 26.9341 28.8894 25.9045 30.72 25.0164C32.5505 24.1282 36.3032 24.5526 37.5962 25.2935C35.5478 24.9746 35.1191 25.2135 34.468 26.3764C35.7158 26.9561 36.1317 27.7677 36.6867 27.8744C37.2417 27.9811 39.3816 28.5388 40.152 26.7926C39.8473 28.3161 39.4094 28.5898 38.6714 28.8796C37.9333 29.1695 37.0204 29.2008 36.3252 29.4512C35.6301 29.7017 35.827 30.9585 33.3036 34.5899C30.7802 38.2213 26.841 38.503 26.0091 38.0033Z" fill="#242227"/>
<path d="M36.1816 28.4913C36.645 28.8194 38.3678 30.2015 39.7859 28.9249C38.8846 30.1887 38.3736 30.2606 37.5846 30.227C36.7956 30.1934 35.9464 29.8421 35.2095 29.7864C34.5155 29.7342 35.7205 28.1632 36.1816 28.4913Z" fill="#242227"/>
<path d="M35.498 27.3378C36.0576 27.4189 38.2242 27.8584 38.9019 26.074C38.6772 27.6114 38.2543 27.9082 37.5337 28.241C36.813 28.5737 35.9012 28.6491 35.2165 28.9366C34.5839 29.2056 34.9384 27.2566 35.498 27.3378Z" fill="#242227"/>
<path d="M31.7767 30.9551C32.9714 30.9551 33.9398 29.9859 33.9398 28.7904C33.9398 27.5949 32.9714 26.6257 31.7767 26.6257C30.5821 26.6257 29.6136 27.5949 29.6136 28.7904C29.6136 29.9859 30.5821 30.9551 31.7767 30.9551Z" fill="white"/>
<path d="M25.3442 50.9903C27.5784 51.207 29.7997 51.5402 31.9992 51.9885C31.9992 51.9885 24.9005 70.0759 24.013 72.4122C22.9442 75.2346 22.2361 78.1809 21.9056 81.1811C21.6752 83.0583 21.7535 84.9606 22.1373 86.8125C23.1915 85.0459 24.4393 83.4025 25.8575 81.9127C26.8829 76.7508 32.2772 64.7529 36.8224 51.0447C38.9449 50.6273 41.0327 49.5595 43.0892 47.8818C45.4527 45.6429 47.3366 43.1281 48.187 39.9975L49.6283 33.8931C49.6283 33.8931 47.0794 39.2265 46.3008 40.3303C45.5222 41.4341 40.2032 47.9931 36.2141 48.4372C32.2251 48.8812 22.5161 48.1032 22.5161 48.1032C20.7782 48.0453 19.2373 48.2122 18.0359 48.7688C17.5409 49.0388 17.0727 49.3552 16.6375 49.7137C15.5947 49.4366 14.815 48.6632 14.1975 47.6047C14.413 49.7566 14.4454 51.8123 13.4177 53.301C12.8071 54.1023 11.9656 54.6968 11.0067 55.0043C10.0439 55.3185 5.34005 55.337 2.66487 54.6564L2.54901 56.4663C2.54901 56.4663 5.10833 57.0936 6.51834 57.315C7.92834 57.5365 11.732 57.7695 13.3077 57.2594C14.9436 56.7295 16.9816 54.0013 17.4114 51.3775C17.4137 51.3787 21.7943 50.6563 25.3442 50.9903Z" fill="#2C2C33"/>
</svg>
